<svg width="40" height="40" viewBox="0 0 40 40" fill="none" xmlns="http://www.w3.org/2000/svg">
<path d="M20 40C31.0457 40 40 31.0457 40 20C40 8.9543 31.0457 0 20 0C8.9543 0 0 8.9543 0 20C0 31.0457 8.9543 40 20 40Z" fill="#121212"/>
<path d="M12.7099 8.2085H19.8193C22.8609 8.2085 25.163 8.63558 26.7255 9.48975C28.288 10.3439 29.0693 11.8439 29.0693 13.9897C29.0693 14.8543 28.9286 15.6356 28.6474 16.3335C28.3766 17.0314 27.9807 17.6043 27.4599 18.0522C26.9391 18.5002 26.3036 18.7918 25.5536 18.9272V19.0835C26.3141 19.2397 27.0016 19.5106 27.6161 19.896C28.2307 20.271 28.7203 20.8231 29.0849 21.5522C29.4599 22.271 29.6474 23.2293 29.6474 24.4272C29.6474 25.8127 29.3089 27.0002 28.6318 27.9897C27.9547 28.9793 26.9859 29.7397 25.7255 30.271C24.4755 30.7918 22.9859 31.0522 21.2568 31.0522H12.7099V8.2085ZM17.5536 17.2554H20.3661C21.7724 17.2554 22.7464 17.0366 23.288 16.5991C23.8297 16.1512 24.1005 15.495 24.1005 14.6304C24.1005 13.7554 23.7776 13.1304 23.1318 12.7554C22.4964 12.37 21.4859 12.1772 20.1005 12.1772H17.5536V17.2554ZM17.5536 21.0991V27.0522H20.7099C22.1682 27.0522 23.1839 26.771 23.7568 26.2085C24.3297 25.646 24.6161 24.8908 24.6161 23.9429C24.6161 23.3804 24.4911 22.8856 24.2411 22.4585C23.9911 22.0314 23.5693 21.6981 22.9755 21.4585C22.3922 21.2189 21.5849 21.0991 20.5536 21.0991H17.5536Z" fill="white"/>
</svg>
